<svg width="24" height="24" viewBox="0 0 24 24" fill="none" xmlns="http://www.w3.org/2000/svg">
<path d="M20.7792 3.8279L22.7392 1.67165C22.9138 1.4748 23.0038 1.21706 22.9897 0.9543C22.9755 0.691541 22.8584 0.444942 22.6637 0.267968C22.4689 0.0909936 22.2123 -0.00209195 21.9494 0.00889262C21.6865 0.0198772 21.4385 0.134046 21.2592 0.326648L19.2992 2.48165C16.9127 0.648797 13.9245 -0.22003 10.9273 0.0475336C7.93011 0.315097 5.14301 1.6995 3.11892 3.92609C1.09484 6.15268 -0.0183445 9.05877 0.000228726 12.0678C0.018802 15.0768 1.16777 17.969 3.21919 20.1704L1.25919 22.3266C1.16903 22.4235 1.09898 22.5373 1.05311 22.6614C1.00725 22.7856 0.986475 22.9175 0.991999 23.0498C0.997523 23.182 1.02923 23.3118 1.08529 23.4317C1.14135 23.5515 1.22065 23.6591 1.31858 23.7481C1.41651 23.8371 1.53113 23.9057 1.6558 23.9501C1.78047 23.9945 1.91271 24.0137 2.04485 24.0066C2.17699 23.9995 2.3064 23.9662 2.42559 23.9087C2.54478 23.8512 2.65137 23.7706 2.73919 23.6716L4.69919 21.5166C7.08567 23.3495 10.0739 24.2183 13.0711 23.9508C16.0683 23.6832 18.8554 22.2988 20.8795 20.0722C22.9035 17.8456 24.0167 14.9395 23.9982 11.9305C23.9796 8.92146 22.8306 6.02933 20.7792 3.8279ZM1.99919 11.9991C2.0003 10.1478 2.51531 8.33317 3.48686 6.75727C4.45841 5.18138 5.84835 3.90611 7.50187 3.07352C9.1554 2.24092 11.0076 1.88369 12.8522 2.0416C14.6967 2.19951 16.4612 2.86637 17.9492 3.9679L4.57419 18.6841C2.91594 16.8526 1.99811 14.4698 1.99919 11.9991ZM11.9992 21.9991C9.85549 22.0014 7.76846 21.3108 6.04919 20.0304L19.4242 5.31415C20.7182 6.74968 21.5682 8.52963 21.8712 10.4384C22.1743 12.3472 21.9174 14.3028 21.1316 16.0686C20.3458 17.8343 19.0649 19.3343 17.4441 20.3869C15.8232 21.4395 13.9319 21.9995 11.9992 21.9991Z" fill="#0F766E"/>
</svg>
